<svg width="2676" height="450" viewBox="0 0 2676 450" fill="none" xmlns="http://www.w3.org/2000/svg">
    <mask id="mask0_458_96" style="mask-type:luminance" maskUnits="userSpaceOnUse" x="0" y="82"
        width="2667" height="285">
        <path d="M2667 82H0V367H2667V82Z" fill="white" />
    </mask>
    <g mask="url(#mask0_458_96)">
        <path
            d="M129.5 365.976C101 365.976 76.5498 362.168 56.1498 354.552C36.0498 346.935 17.5998 336.739 0.799805 323.963L42.6498 280.845C56.7498 291.901 70.8498 300.009 84.9498 305.168C99.3498 310.082 114.5 312.539 130.4 312.539C146.9 312.539 159.65 309.959 168.65 304.8C177.65 299.395 182.15 292.147 182.15 283.056C182.15 276.668 179.6 271.509 174.5 267.578C169.4 263.647 162.8 260.576 154.7 258.364C146.9 256.153 135.95 253.573 121.85 250.625C99.6498 246.203 81.4998 241.657 67.3998 236.989C53.2998 232.076 41.1498 224.091 30.9498 213.035C20.7498 201.979 15.6498 186.869 15.6498 167.705C15.6498 151.244 20.7498 136.625 30.9498 123.849C41.4498 110.828 56.1498 100.754 75.0498 93.6291C93.9498 86.2591 115.85 82.5731 140.75 82.5731C164.75 82.5731 186.05 85.7671 204.65 92.1551C223.25 98.2981 239.3 106.774 252.8 117.584L212.75 159.966C202.25 152.104 191.3 146.207 179.9 142.276C168.5 138.099 155.45 136.011 140.75 136.011C123.65 136.011 110.6 138.713 101.6 144.119C92.5998 149.524 88.0998 156.772 88.0998 165.862C88.0998 171.759 90.6498 176.673 95.7498 180.604C100.85 184.289 107.3 187.237 115.1 189.448C123.2 191.66 134.3 194.239 148.4 197.188C170.6 201.856 188.75 206.647 202.85 211.56C216.95 216.229 229.1 223.968 239.3 234.778C249.5 245.343 254.6 259.838 254.6 278.265C254.6 295.955 249.35 311.433 238.85 324.701C228.65 337.968 214.1 348.164 195.2 355.289C176.3 362.414 154.4 365.976 129.5 365.976ZM448.047 366.345C419.547 366.345 392.097 360.94 365.697 350.129C339.597 339.073 318.147 322.858 301.347 301.483C284.847 280.108 276.597 254.556 276.597 224.828C276.597 194.362 284.847 168.319 301.347 146.698C318.147 125.078 339.597 108.985 365.697 98.4201C392.097 87.6101 419.547 82.2051 448.047 82.2051C476.547 82.2051 504.147 87.6101 530.847 98.4201C557.547 109.231 579.297 125.446 596.097 147.067C613.197 168.442 621.747 194.362 621.747 224.828C621.747 254.556 613.347 280.108 596.547 301.483C579.747 322.858 557.997 339.073 531.297 350.129C504.597 360.94 476.847 366.345 448.047 366.345ZM448.047 309.591C464.847 309.591 480.897 306.397 496.197 300.009C511.497 293.621 523.947 284.039 533.547 271.263C543.147 258.487 547.947 243.009 547.947 224.828C547.947 205.91 543.147 189.94 533.547 176.918C523.947 163.897 511.497 154.315 496.197 148.173C481.197 141.785 465.147 138.591 448.047 138.591C430.947 138.591 415.047 141.785 400.347 148.173C385.647 154.315 373.647 163.897 364.347 176.918C355.347 189.694 350.847 205.664 350.847 224.828C350.847 243.009 355.347 258.487 364.347 271.263C373.647 284.039 385.647 293.621 400.347 300.009C415.347 306.397 431.247 309.591 448.047 309.591ZM793.784 365.976C767.084 365.976 743.534 361.554 723.134 352.709C702.734 343.864 686.834 330.843 675.434 313.645C664.034 296.201 658.334 275.071 658.334 250.257L659.234 88.1011H730.334L729.884 244.729C729.584 266.595 734.834 282.933 745.634 293.744C756.734 304.308 772.634 309.591 793.334 309.591C835.334 309.591 856.334 287.97 856.334 244.729L856.784 88.1011H928.334L927.884 250.257C927.884 275.071 922.184 296.201 910.784 313.645C899.684 330.843 884.084 343.864 863.984 352.709C843.884 361.554 820.484 365.976 793.784 365.976ZM1247.42 88.1011V364.871H1237.52L1053.92 211.192V360.448H982.366V83.3101H992.716L1175.42 236.621V88.1011H1247.42ZM1396.7 88.1011C1438.4 88.1011 1473.8 93.3841 1502.9 103.948C1532 114.513 1554.05 129.746 1569.05 149.647C1584.05 169.548 1591.55 193.379 1591.55 221.142C1591.55 250.379 1583.6 275.44 1567.7 296.323C1551.8 317.207 1529.15 333.177 1499.75 344.233C1470.65 355.043 1436.3 360.448 1396.7 360.448H1306.7V88.1011H1396.7ZM1397.6 307.748C1422.2 307.748 1443.5 304.431 1461.5 297.798C1479.5 291.164 1493.3 281.459 1502.9 268.683C1512.8 255.662 1517.75 239.815 1517.75 221.142C1517.75 193.379 1507.7 173.11 1487.6 160.334C1467.5 147.313 1437.5 140.802 1397.6 140.802H1377.35V307.748H1397.6ZM1787.57 366.345C1759.07 366.345 1731.62 360.94 1705.22 350.129C1679.12 339.073 1657.67 322.858 1640.87 301.483C1624.37 280.108 1616.12 254.556 1616.12 224.828C1616.12 194.362 1624.37 168.319 1640.87 146.698C1657.67 125.078 1679.12 108.985 1705.22 98.4201C1731.62 87.6101 1759.07 82.2051 1787.57 82.2051C1816.07 82.2051 1843.67 87.6101 1870.37 98.4201C1897.07 109.231 1918.82 125.446 1935.62 147.067C1952.72 168.442 1961.27 194.362 1961.27 224.828C1961.27 254.556 1952.87 280.108 1936.07 301.483C1919.27 322.858 1897.52 339.073 1870.82 350.129C1844.12 360.94 1816.37 366.345 1787.57 366.345ZM1787.57 309.591C1804.37 309.591 1820.42 306.397 1835.72 300.009C1851.02 293.621 1863.47 284.039 1873.07 271.263C1882.67 258.487 1887.47 243.009 1887.47 224.828C1887.47 205.91 1882.67 189.94 1873.07 176.918C1863.47 163.897 1851.02 154.315 1835.72 148.173C1820.72 141.785 1804.67 138.591 1787.57 138.591C1770.47 138.591 1754.57 141.785 1739.87 148.173C1725.17 154.315 1713.17 163.897 1703.87 176.918C1694.87 189.694 1690.37 205.664 1690.37 224.828C1690.37 243.009 1694.87 258.487 1703.87 271.263C1713.17 284.039 1725.17 293.621 1739.87 300.009C1754.87 306.397 1770.77 309.591 1787.57 309.591ZM2100.55 365.976C2072.05 365.976 2047.6 362.168 2027.2 354.552C2007.1 346.935 1988.65 336.739 1971.85 323.963L2013.7 280.845C2027.8 291.901 2041.9 300.009 2056 305.168C2070.4 310.082 2085.55 312.539 2101.45 312.539C2117.95 312.539 2130.7 309.959 2139.7 304.8C2148.7 299.395 2153.2 292.147 2153.2 283.056C2153.2 276.668 2150.65 271.509 2145.55 267.578C2140.45 263.647 2133.85 260.576 2125.75 258.364C2117.95 256.153 2107 253.573 2092.9 250.625C2070.7 246.203 2052.55 241.657 2038.45 236.989C2024.35 232.076 2012.2 224.091 2002 213.035C1991.8 201.979 1986.7 186.869 1986.7 167.705C1986.7 151.244 1991.8 136.625 2002 123.849C2012.5 110.828 2027.2 100.754 2046.1 93.6291C2065 86.2591 2086.9 82.5731 2111.8 82.5731C2135.8 82.5731 2157.1 85.7671 2175.7 92.1551C2194.3 98.2981 2210.35 106.774 2223.85 117.584L2183.8 159.966C2173.3 152.104 2162.35 146.207 2150.95 142.276C2139.55 138.099 2126.5 136.011 2111.8 136.011C2094.7 136.011 2081.65 138.713 2072.65 144.119C2063.65 149.524 2059.15 156.772 2059.15 165.862C2059.15 171.759 2061.7 176.673 2066.8 180.604C2071.9 184.289 2078.35 187.237 2086.15 189.448C2094.25 191.66 2105.35 194.239 2119.45 197.188C2141.65 201.856 2159.8 206.647 2173.9 211.56C2188 216.229 2200.15 223.968 2210.35 234.778C2220.55 245.343 2225.65 259.838 2225.65 278.265C2225.65 295.955 2220.4 311.433 2209.9 324.701C2199.7 337.968 2185.15 348.164 2166.25 355.289C2147.35 362.414 2125.45 365.976 2100.55 365.976Z"
            fill="white" />
        <path
            d="M129.5 365.976C101 365.976 76.5498 362.168 56.1498 354.552C36.0498 346.935 17.5998 336.739 0.799805 323.963L42.6498 280.845C56.7498 291.901 70.8498 300.009 84.9498 305.168C99.3498 310.082 114.5 312.539 130.4 312.539C146.9 312.539 159.65 309.959 168.65 304.8C177.65 299.395 182.15 292.147 182.15 283.056C182.15 276.668 179.6 271.509 174.5 267.578C169.4 263.647 162.8 260.576 154.7 258.364C146.9 256.153 135.95 253.573 121.85 250.625C99.6498 246.203 81.4998 241.657 67.3998 236.989C53.2998 232.076 41.1498 224.091 30.9498 213.035C20.7498 201.979 15.6498 186.869 15.6498 167.705C15.6498 151.244 20.7498 136.625 30.9498 123.849C41.4498 110.828 56.1498 100.754 75.0498 93.6291C93.9498 86.2591 115.85 82.5731 140.75 82.5731C164.75 82.5731 186.05 85.7671 204.65 92.1551C223.25 98.2981 239.3 106.774 252.8 117.584L212.75 159.966C202.25 152.104 191.3 146.207 179.9 142.276C168.5 138.099 155.45 136.011 140.75 136.011C123.65 136.011 110.6 138.713 101.6 144.119C92.5998 149.524 88.0998 156.772 88.0998 165.862C88.0998 171.759 90.6498 176.673 95.7498 180.604C100.85 184.289 107.3 187.237 115.1 189.448C123.2 191.66 134.3 194.239 148.4 197.188C170.6 201.856 188.75 206.647 202.85 211.56C216.95 216.229 229.1 223.968 239.3 234.778C249.5 245.343 254.6 259.838 254.6 278.265C254.6 295.955 249.35 311.433 238.85 324.701C228.65 337.968 214.1 348.164 195.2 355.289C176.3 362.414 154.4 365.976 129.5 365.976ZM448.047 366.345C419.547 366.345 392.097 360.94 365.697 350.129C339.597 339.073 318.147 322.858 301.347 301.483C284.847 280.108 276.597 254.556 276.597 224.828C276.597 194.362 284.847 168.319 301.347 146.698C318.147 125.078 339.597 108.985 365.697 98.4201C392.097 87.6101 419.547 82.2051 448.047 82.2051C476.547 82.2051 504.147 87.6101 530.847 98.4201C557.547 109.231 579.297 125.446 596.097 147.067C613.197 168.442 621.747 194.362 621.747 224.828C621.747 254.556 613.347 280.108 596.547 301.483C579.747 322.858 557.997 339.073 531.297 350.129C504.597 360.94 476.847 366.345 448.047 366.345ZM448.047 309.591C464.847 309.591 480.897 306.397 496.197 300.009C511.497 293.621 523.947 284.039 533.547 271.263C543.147 258.487 547.947 243.009 547.947 224.828C547.947 205.91 543.147 189.94 533.547 176.918C523.947 163.897 511.497 154.315 496.197 148.173C481.197 141.785 465.147 138.591 448.047 138.591C430.947 138.591 415.047 141.785 400.347 148.173C385.647 154.315 373.647 163.897 364.347 176.918C355.347 189.694 350.847 205.664 350.847 224.828C350.847 243.009 355.347 258.487 364.347 271.263C373.647 284.039 385.647 293.621 400.347 300.009C415.347 306.397 431.247 309.591 448.047 309.591ZM793.784 365.976C767.084 365.976 743.534 361.554 723.134 352.709C702.734 343.864 686.834 330.843 675.434 313.645C664.034 296.201 658.334 275.071 658.334 250.257L659.234 88.1011H730.334L729.884 244.729C729.584 266.595 734.834 282.933 745.634 293.744C756.734 304.308 772.634 309.591 793.334 309.591C835.334 309.591 856.334 287.97 856.334 244.729L856.784 88.1011H928.334L927.884 250.257C927.884 275.071 922.184 296.201 910.784 313.645C899.684 330.843 884.084 343.864 863.984 352.709C843.884 361.554 820.484 365.976 793.784 365.976ZM1247.42 88.1011V364.871H1237.52L1053.92 211.192V360.448H982.366V83.3101H992.716L1175.42 236.621V88.1011H1247.42ZM1396.7 88.1011C1438.4 88.1011 1473.8 93.3841 1502.9 103.948C1532 114.513 1554.05 129.746 1569.05 149.647C1584.05 169.548 1591.55 193.379 1591.55 221.142C1591.55 250.379 1583.6 275.44 1567.7 296.323C1551.8 317.207 1529.15 333.177 1499.75 344.233C1470.65 355.043 1436.3 360.448 1396.7 360.448H1306.7V88.1011H1396.7ZM1397.6 307.748C1422.2 307.748 1443.5 304.431 1461.5 297.798C1479.5 291.164 1493.3 281.459 1502.9 268.683C1512.8 255.662 1517.75 239.815 1517.75 221.142C1517.75 193.379 1507.7 173.11 1487.6 160.334C1467.5 147.313 1437.5 140.802 1397.6 140.802H1377.35V307.748H1397.6ZM1787.57 366.345C1759.07 366.345 1731.62 360.94 1705.22 350.129C1679.12 339.073 1657.67 322.858 1640.87 301.483C1624.37 280.108 1616.12 254.556 1616.12 224.828C1616.12 194.362 1624.37 168.319 1640.87 146.698C1657.67 125.078 1679.12 108.985 1705.22 98.4201C1731.62 87.6101 1759.07 82.2051 1787.57 82.2051C1816.07 82.2051 1843.67 87.6101 1870.37 98.4201C1897.07 109.231 1918.82 125.446 1935.62 147.067C1952.72 168.442 1961.27 194.362 1961.27 224.828C1961.27 254.556 1952.87 280.108 1936.07 301.483C1919.27 322.858 1897.52 339.073 1870.82 350.129C1844.12 360.94 1816.37 366.345 1787.57 366.345ZM1787.57 309.591C1804.37 309.591 1820.42 306.397 1835.72 300.009C1851.02 293.621 1863.47 284.039 1873.07 271.263C1882.67 258.487 1887.47 243.009 1887.47 224.828C1887.47 205.91 1882.67 189.94 1873.07 176.918C1863.47 163.897 1851.02 154.315 1835.72 148.173C1820.72 141.785 1804.67 138.591 1787.57 138.591C1770.47 138.591 1754.57 141.785 1739.87 148.173C1725.17 154.315 1713.17 163.897 1703.87 176.918C1694.87 189.694 1690.37 205.664 1690.37 224.828C1690.37 243.009 1694.87 258.487 1703.87 271.263C1713.17 284.039 1725.17 293.621 1739.87 300.009C1754.87 306.397 1770.77 309.591 1787.57 309.591ZM2100.55 365.976C2072.05 365.976 2047.6 362.168 2027.2 354.552C2007.1 346.935 1988.65 336.739 1971.85 323.963L2013.7 280.845C2027.8 291.901 2041.9 300.009 2056 305.168C2070.4 310.082 2085.55 312.539 2101.45 312.539C2117.95 312.539 2130.7 309.959 2139.7 304.8C2148.7 299.395 2153.2 292.147 2153.2 283.056C2153.2 276.668 2150.65 271.509 2145.55 267.578C2140.45 263.647 2133.85 260.576 2125.75 258.364C2117.95 256.153 2107 253.573 2092.9 250.625C2070.7 246.203 2052.55 241.657 2038.45 236.989C2024.35 232.076 2012.2 224.091 2002 213.035C1991.8 201.979 1986.7 186.869 1986.7 167.705C1986.7 151.244 1991.8 136.625 2002 123.849C2012.5 110.828 2027.2 100.754 2046.1 93.6291C2065 86.2591 2086.9 82.5731 2111.8 82.5731C2135.8 82.5731 2157.1 85.7671 2175.7 92.1551C2194.3 98.2981 2210.35 106.774 2223.85 117.584L2183.8 159.966C2173.3 152.104 2162.35 146.207 2150.95 142.276C2139.55 138.099 2126.5 136.011 2111.8 136.011C2094.7 136.011 2081.65 138.713 2072.65 144.119C2063.65 149.524 2059.15 156.772 2059.15 165.862C2059.15 171.759 2061.7 176.673 2066.8 180.604C2071.9 184.289 2078.35 187.237 2086.15 189.448C2094.25 191.66 2105.35 194.239 2119.45 197.188C2141.65 201.856 2159.8 206.647 2173.9 211.56C2188 216.229 2200.15 223.968 2210.35 234.778C2220.55 245.343 2225.65 259.838 2225.65 278.265C2225.65 295.955 2220.4 311.433 2209.9 324.701C2199.7 337.968 2185.15 348.164 2166.25 355.289C2147.35 362.414 2125.45 365.976 2100.55 365.976Z"
            fill="white" />
        <path
            d="M2544 364.5V32C2497.03 32 2472.5 71.028 2472.5 118V190.298H2346V82H2274V364.5H2346V261H2472.5V364.5H2544Z"
            fill="white" />
        <path d="M2667 82H2595.9V365.799H2667V82Z" fill="white" />
    </g>
</svg>