<?xml version="1.0" standalone="no"?>
<!DOCTYPE svg PUBLIC "-//W3C//DTD SVG 20010904//EN"
 "http://www.w3.org/TR/2001/REC-SVG-20010904/DTD/svg10.dtd">
<svg version="1.0" xmlns="http://www.w3.org/2000/svg"
 width="500.000000pt" height="500.000000pt" viewBox="0 0 500.000000 500.000000"
 preserveAspectRatio="xMidYMid meet">
<metadata>
Created by potrace 1.14, written by Peter Selinger 2001-2017
</metadata>
<g transform="translate(0.000000,500.000000) scale(0.100000,-0.100000)"
fill="#000000" stroke="none">
<path d="M2548 4995 c-2 -2 -82 -5 -178 -8 -96 -3 -191 -9 -210 -12 -19 -3
-62 -11 -95 -16 -152 -26 -397 -96 -502 -145 -30 -13 -56 -24 -59 -24 -31 0
-417 -218 -444 -251 -3 -3 -28 -21 -56 -40 -73 -49 -154 -119 -269 -235 -143
-145 -183 -193 -336 -414 -43 -62 -171 -308 -215 -415 -51 -121 -103 -302
-133 -465 -11 -58 -23 -121 -27 -140 -4 -19 -8 -159 -9 -310 -3 -293 8 -398
65 -624 11 -46 22 -93 25 -105 6 -31 70 -211 95 -267 36 -80 140 -285 165
-323 56 -89 176 -256 226 -313 111 -128 319 -326 390 -371 l29 -19 0 192 0
193 33 -6 c17 -3 64 -13 102 -22 106 -23 186 -30 345 -30 166 0 241 18 345 80
96 58 121 88 207 245 49 88 114 303 143 470 3 19 17 85 31 145 13 61 27 128
30 150 3 21 8 43 10 47 3 5 8 21 10 36 3 15 16 79 31 142 14 63 27 126 30 140
2 14 17 84 33 155 31 138 39 175 45 215 2 14 9 48 15 75 7 28 14 59 16 70 2
11 17 81 34 155 17 74 33 146 36 160 4 22 12 59 20 95 10 44 56 254 60 270 9
46 14 72 19 100 3 17 7 39 9 50 8 37 95 438 136 625 23 102 54 253 71 335 17
83 37 177 45 210 8 33 16 69 18 80 2 11 7 36 11 56 l7 36 -54 7 c-29 3 -100 9
-158 12 -58 2 -113 6 -122 8 -9 2 -18 3 -20 1z"/>
<path d="M3877 4473 c-10 -49 -21 -99 -24 -113 -3 -14 -7 -34 -9 -45 -2 -11
-22 -101 -44 -200 -22 -99 -43 -196 -46 -215 -3 -19 -8 -38 -10 -41 -2 -3 -6
-21 -9 -40 -3 -19 -17 -81 -31 -139 -14 -58 -26 -114 -28 -125 -3 -16 -21
-112 -42 -220 -2 -11 -8 -42 -13 -70 -6 -27 -46 -212 -90 -410 -43 -198 -87
-400 -96 -450 -9 -49 -25 -126 -35 -170 -17 -72 -118 -532 -156 -710 -67 -320
-128 -544 -175 -650 -5 -11 -20 -51 -35 -90 -45 -123 -182 -359 -216 -373 -4
-2 -8 -9 -8 -16 0 -15 -119 -134 -202 -201 -47 -38 -262 -159 -278 -156 -3 0
-21 -5 -40 -11 l-35 -12 35 -6 c59 -10 441 -3 515 10 39 6 88 14 110 16 124
16 382 89 526 149 160 67 458 231 499 275 3 3 28 20 55 39 115 79 324 279 436
417 135 166 262 371 343 554 16 36 39 88 52 116 53 119 117 372 149 589 19
132 13 598 -10 725 -26 147 -95 405 -125 475 -5 11 -21 49 -36 85 -88 217
-249 481 -398 655 -99 116 -335 341 -370 354 -6 2 -13 7 -16 10 -10 13 -108
81 -117 81 -4 0 -17 -39 -26 -87z"/>
</g>
</svg>
